<?xml version="1.0" standalone="no"?>
<!DOCTYPE svg PUBLIC "-//W3C//DTD SVG 20010904//EN"
 "http://www.w3.org/TR/2001/REC-SVG-20010904/DTD/svg10.dtd">
<svg version="1.0" xmlns="http://www.w3.org/2000/svg"
 width="717.000000pt" height="348.000000pt" viewBox="0 0 717.000000 348.000000"
 preserveAspectRatio="xMidYMid meet">
<metadata>
Created by potrace 1.16, written by Peter Selinger 2001-2019
</metadata>
<g transform="translate(0.000000,348.000000) scale(0.100000,-0.100000)"
fill="#000000" stroke="none">
<path d="M3090 3213 c-74 -24 -154 -52 -177 -60 l-43 -16 55 -32 54 -33 73 28
c40 15 81 31 91 35 18 8 18 -16 2 -272 l-5 -73 76 0 76 0 -6 133 c-4 72 -9
152 -12 175 -5 42 -5 44 18 37 13 -4 43 -13 68 -20 25 -8 74 -22 110 -33 l65
-20 30 23 c37 28 35 36 -13 53 -20 6 -46 16 -57 21 -46 22 -253 101 -261 100
-5 -1 -70 -21 -144 -46z"/>
<path d="M2505 2774 c-88 -29 -206 -67 -263 -84 l-102 -31 5 -37 c2 -20 9 -91
15 -157 25 -300 31 -359 33 -362 2 -1 23 -11 47 -22 l45 -20 5 233 5 233 405
-201 405 -201 7 -140 c12 -249 29 -557 38 -700 4 -77 7 -142 5 -144 -2 -2 -39
17 -82 41 -43 25 -114 64 -158 88 -44 23 -103 55 -131 71 -28 16 -55 29 -58
29 -4 0 -6 -19 -4 -42 3 -46 -23 -25 369 -292 l97 -66 73 44 c41 24 119 70
174 102 l101 59 -9 52 c-5 29 -13 53 -19 53 -6 0 -57 -25 -114 -55 l-104 -56
0 488 0 488 78 34 c101 46 349 158 387 176 55 26 203 94 237 108 18 8 59 27
91 41 l58 26 -7 -180 -7 -180 51 0 50 0 7 78 c3 42 10 124 15 182 5 58 12 133
14 167 l6 61 -123 48 c-67 25 -165 63 -217 83 -92 36 -97 37 -162 27 -38 -6
-68 -13 -68 -16 1 -3 33 -20 73 -37 191 -86 224 -100 255 -112 17 -8 32 -17
32 -21 0 -4 -71 -35 -157 -70 -87 -35 -171 -69 -188 -76 -16 -7 -82 -34 -145
-60 -63 -25 -128 -52 -145 -59 -16 -8 -71 -30 -122 -50 l-92 -36 -168 71 c-92
40 -186 80 -208 90 -22 10 -69 30 -105 45 -36 15 -83 35 -105 45 -22 9 -85 37
-140 60 -55 24 -104 46 -108 50 -5 4 76 35 180 69 103 34 195 64 203 67 22 8
-39 54 -70 52 -14 0 -97 -24 -185 -54z"/>
<path d="M697 2054 c-150 -36 -234 -133 -244 -284 -9 -126 35 -232 122 -292
47 -32 173 -68 236 -68 62 0 192 35 253 67 l51 28 3 128 3 127 -156 0 -155 0
0 -50 0 -50 80 0 80 0 0 -44 c0 -43 -1 -44 -52 -67 -39 -17 -71 -23 -120 -23
-59 0 -74 4 -110 30 -61 42 -88 100 -88 188 0 93 26 147 87 183 88 51 229 29
261 -42 6 -14 20 -25 30 -25 25 0 124 19 130 25 10 10 -52 98 -89 125 -44 32
-152 61 -221 59 -24 0 -69 -7 -101 -15z"/>
<path d="M3590 1655 l0 -315 70 0 70 0 1 238 c1 225 2 234 16 187 34 -119 54
-187 85 -300 l33 -120 68 -3 c48 -2 68 1 71 10 10 31 47 162 76 268 61 222 59
223 60 -42 l0 -238 65 0 65 0 0 315 0 315 -104 0 -104 0 -25 -82 c-32 -105
-72 -240 -88 -297 -15 -52 -12 -60 -75 159 -25 85 -50 170 -57 188 l-11 32
-108 0 -108 0 0 -315z"/>
<path d="M5128 1924 l-68 -34 0 -45 c0 -43 -1 -45 -30 -45 -29 0 -30 -1 -30
-50 0 -48 1 -50 29 -50 l29 0 4 -147 c2 -93 8 -156 16 -171 25 -45 121 -65
191 -41 30 11 32 15 27 42 -3 16 -6 36 -6 45 0 11 -7 13 -30 9 -58 -12 -60 -7
-60 134 l0 129 45 0 45 0 0 50 0 50 -45 0 -44 0 -3 79 -3 79 -67 -34z"/>
<path d="M5503 1923 c-62 -34 -63 -35 -63 -79 0 -42 -1 -44 -30 -44 -29 0 -30
-1 -30 -50 0 -49 1 -50 30 -50 l30 0 0 -139 c0 -76 5 -151 10 -168 19 -53 119
-80 196 -53 27 10 29 13 25 56 l-3 45 -38 -6 c-53 -9 -60 8 -60 149 l0 116 50
0 50 0 0 50 0 50 -50 0 -49 0 -3 79 -3 79 -62 -35z"/>
<path d="M1440 1884 c-8 -4 -27 -18 -42 -32 l-28 -26 0 27 c0 27 -1 27 -65 27
l-65 0 0 -225 0 -225 70 0 70 0 0 124 c0 171 21 226 87 226 19 0 42 -4 52 -10
16 -8 21 -2 39 43 11 29 16 56 11 61 -10 11 -108 18 -129 10z"/>
<path d="M1725 1875 c-42 -15 -105 -74 -105 -99 0 -8 13 -17 30 -20 17 -3 43
-9 59 -12 23 -4 32 -1 40 14 15 27 65 46 107 39 45 -8 64 -23 64 -53 0 -26 -7
-29 -120 -49 -110 -19 -163 -46 -185 -92 -44 -91 23 -179 145 -191 40 -4 97
15 171 55 4 2 9 -5 12 -17 4 -18 13 -20 72 -20 60 0 66 2 59 18 -4 9 -10 94
-13 189 l-6 172 -28 29 c-17 17 -48 35 -72 41 -60 15 -182 13 -230 -4z m195
-271 c0 -46 -14 -70 -50 -89 -40 -21 -82 -19 -108 5 -45 43 -25 76 59 100 95
27 99 26 99 -16z"/>
<path d="M2130 1875 c0 -2 40 -97 90 -209 49 -113 92 -216 96 -230 13 -55 -57
-112 -123 -100 -34 6 -36 6 -30 -17 4 -13 7 -36 7 -51 0 -28 0 -28 70 -28 74
0 132 18 161 49 24 25 38 56 108 226 34 83 66 159 71 170 5 11 25 58 44 105
l35 85 -66 3 c-36 2 -69 -1 -74 -5 -4 -4 -30 -71 -59 -148 -56 -150 -69 -180
-70 -156 0 14 -35 108 -65 176 -7 17 -20 54 -30 83 l-17 52 -74 0 c-41 0 -74
-2 -74 -5z"/>
<path d="M4554 1796 c-16 -6 -41 -18 -55 -28 -28 -18 -62 -79 -51 -89 4 -4 32
-9 63 -13 50 -5 57 -4 62 13 9 36 116 48 155 18 6 -5 12 -20 12 -32 0 -27 -24
-37 -128 -55 -133 -23 -182 -63 -182 -149 0 -71 74 -131 160 -131 44 0 117 24
142 46 16 15 18 15 29 -10 11 -24 17 -26 76 -26 64 0 78 11 51 38 -8 8 -14 72
-17 188 l-6 176 -29 23 c-15 12 -45 28 -66 34 -47 14 -175 12 -216 -3z m186
-278 c0 -48 -5 -57 -40 -81 -52 -36 -140 -10 -140 42 0 27 25 44 94 62 89 24
86 24 86 -23z"/>
<path d="M5904 1790 c-92 -41 -134 -109 -134 -218 0 -116 43 -187 136 -221
106 -40 234 -15 294 57 16 20 30 42 30 49 0 7 -21 15 -47 18 -27 4 -56 9 -65
11 -10 3 -19 -3 -23 -15 -3 -10 -22 -27 -42 -36 -53 -26 -106 -8 -133 45 -11
22 -20 44 -20 50 0 6 59 10 171 10 l172 0 -6 58 c-9 103 -56 165 -149 198 -55
19 -134 17 -184 -6z m173 -103 c12 -12 25 -34 28 -49 l7 -28 -101 0 c-110 0
-113 2 -89 56 25 54 109 65 155 21z"/>
<path d="M6585 1799 c-11 -6 -30 -23 -42 -38 l-23 -26 0 33 0 32 -65 0 -65 0
0 -230 0 -230 69 0 70 0 3 149 c3 133 5 153 24 178 23 31 60 40 104 25 27 -10
28 -9 40 34 7 25 17 47 23 51 14 9 -50 33 -87 33 -17 0 -40 -5 -51 -11z"/>
<path d="M780 854 c-8 -2 -55 -8 -105 -12 l-90 -7 -1 -60 c0 -65 -18 -194 -34
-255 -20 -74 -9 -78 155 -60 118 13 135 17 135 36 0 24 -19 25 -124 9 -54 -8
-103 -12 -107 -9 -11 6 -11 39 -3 83 7 35 29 44 144 58 58 7 65 10 68 32 4 23
2 24 -45 17 -26 -4 -72 -10 -101 -13 l-53 -6 7 39 c18 95 9 88 120 97 97 8
134 22 120 46 -7 11 -54 13 -86 5z"/>
<path d="M4373 852 c-15 -9 -53 -248 -53 -329 0 -39 4 -55 16 -60 27 -10 35
12 39 113 1 55 10 134 20 177 20 95 14 122 -22 99z"/>
<path d="M4924 790 c-18 -60 -18 -60 -56 -60 -31 0 -38 -4 -38 -19 0 -22 22
-33 46 -24 15 5 16 0 8 -43 -5 -27 -9 -76 -9 -109 0 -55 2 -61 28 -73 37 -18
87 -1 122 40 36 43 17 60 -26 24 -66 -56 -94 -13 -68 106 13 56 13 57 53 63
88 13 97 16 94 33 -3 14 -14 16 -62 14 -53 -3 -58 -2 -51 15 28 70 27 93 -5
93 -13 0 -22 -15 -36 -60z"/>
<path d="M5697 843 c-4 -3 -7 -13 -7 -22 0 -9 -5 -33 -11 -53 -9 -36 -12 -38
-49 -38 -33 0 -40 -4 -40 -19 0 -22 20 -32 50 -24 20 5 21 3 15 -18 -26 -80
-32 -157 -15 -189 13 -24 52 -33 87 -19 34 12 83 58 83 76 0 19 -9 16 -51 -13
-70 -48 -93 -14 -69 101 12 59 29 75 77 75 49 0 73 11 73 32 0 18 -5 19 -60
13 -33 -4 -60 -5 -60 -2 0 2 7 24 15 47 8 23 12 46 9 51 -6 11 -38 12 -47 2z"/>
<path d="M1523 758 c-6 -7 -13 -62 -17 -123 -6 -100 -16 -166 -45 -295 -8 -38
-7 -47 7 -58 25 -19 36 3 52 103 13 84 22 106 35 85 9 -15 62 -12 93 4 35 19
96 83 116 123 9 18 16 54 16 81 0 58 -20 82 -70 82 -27 0 -43 -10 -84 -52 -28
-29 -56 -62 -62 -72 -8 -16 -10 -4 -10 54 1 72 -10 95 -31 68z m208 -71 c15
-32 -20 -105 -73 -152 -42 -39 -73 -43 -92 -12 -14 23 22 93 77 147 45 45 73
51 88 17z"/>
<path d="M942 671 c-7 -48 -12 -114 -12 -145 0 -53 1 -56 25 -56 19 0 31 11
54 53 48 84 104 158 114 148 4 -4 11 -43 14 -85 3 -42 12 -84 19 -93 11 -17
13 -17 33 1 11 10 38 51 60 91 22 39 47 77 55 84 19 16 19 15 37 -84 18 -104
42 -132 85 -101 19 14 19 15 -3 35 -24 22 -37 62 -50 150 -15 101 -71 93 -130
-19 -19 -36 -41 -72 -49 -80 -12 -12 -14 -7 -14 43 0 63 -21 127 -42 127 -27
0 -62 -35 -109 -109 -52 -81 -56 -78 -39 27 7 43 7 68 0 82 -22 42 -36 22 -48
-69z"/>
<path d="M1975 753 c-60 -14 -123 -101 -131 -183 -9 -80 38 -129 109 -116 52
10 120 79 137 140 27 98 -31 178 -115 159z m59 -65 c44 -63 -18 -188 -93 -188
-15 0 -32 5 -39 12 -18 18 -14 74 9 121 37 75 92 99 123 55z"/>
<path d="M2170 735 c-19 -49 24 -237 61 -271 18 -16 20 -16 38 0 10 9 36 52
57 96 22 43 42 79 45 79 4 1 10 -11 14 -26 20 -83 74 -153 108 -140 7 2 23 38
35 78 13 41 37 100 53 132 34 68 35 77 10 77 -24 0 -48 -41 -85 -142 -15 -43
-31 -78 -35 -78 -15 0 -43 65 -55 128 -8 46 -17 67 -27 67 -8 0 -29 -29 -48
-65 -18 -36 -45 -85 -59 -109 l-25 -44 -15 29 c-9 16 -18 68 -21 119 -5 75 -9
90 -23 93 -12 2 -21 -6 -28 -23z"/>
<path d="M2731 734 c-69 -57 -108 -170 -81 -234 15 -37 67 -54 120 -40 41 11
110 70 110 94 0 22 -11 20 -41 -8 -35 -33 -63 -46 -96 -46 -62 0 -72 50 -15
79 21 11 57 38 80 60 33 32 42 48 42 75 0 22 -6 36 -16 40 -33 13 -74 5 -103
-20z"/>
<path d="M3915 741 c-87 -39 -165 -134 -165 -200 0 -20 4 -41 8 -47 23 -34 89
-20 150 31 l41 36 -5 -38 c-17 -125 -48 -183 -98 -183 -13 0 -50 14 -81 30
-32 17 -60 28 -62 26 -3 -2 -2 -14 2 -25 10 -31 87 -71 137 -71 88 0 120 48
148 227 11 72 24 142 29 154 11 31 -5 66 -33 73 -28 8 -25 8 -71 -13z m55 -60
c0 -53 -102 -161 -151 -161 -26 0 -25 43 2 86 29 47 98 104 126 104 19 0 23
-5 23 -29z"/>
<path d="M6145 744 c-47 -24 -66 -45 -91 -99 -34 -72 -32 -129 5 -166 44 -43
97 -35 159 24 46 44 62 78 62 131 0 60 -16 92 -55 111 -41 19 -43 19 -80 -1z
m81 -59 c41 -62 -29 -185 -104 -185 -43 0 -55 59 -27 128 34 81 97 108 131 57z"/>
<path d="M2970 735 c-15 -18 -25 -254 -12 -274 18 -26 39 -3 61 66 21 68 78
159 107 170 8 3 26 0 40 -7 35 -19 53 0 34 35 -10 19 -21 25 -46 25 -37 0
-100 -57 -130 -118 l-19 -37 -3 30 c-2 16 1 47 8 68 6 20 8 42 5 47 -9 15 -31
12 -45 -5z"/>
<path d="M5146 741 c-11 -18 -36 -154 -36 -197 0 -43 24 -84 50 -84 32 0 99
55 128 106 10 16 11 14 12 -18 0 -54 18 -88 47 -88 27 0 29 12 7 46 -14 20
-15 38 -9 97 11 111 11 120 -2 124 -7 3 -27 -28 -49 -72 -38 -81 -96 -148
-123 -143 -24 5 -25 58 -2 139 11 38 17 77 14 85 -6 16 -29 19 -37 5z"/>
<path d="M3406 708 c-6 -27 -18 -158 -20 -208 -1 -31 2 -35 23 -35 21 0 33 15
74 85 54 95 74 120 93 120 14 0 18 -12 29 -85 12 -82 24 -105 54 -105 25 0 77
39 55 41 -5 1 -18 2 -29 3 -17 1 -23 14 -36 83 -18 93 -30 113 -68 113 -33 0
-68 -35 -111 -113 -36 -65 -47 -68 -31 -10 6 21 11 59 11 86 0 40 -3 47 -20
47 -12 0 -21 -8 -24 -22z"/>
<path d="M4496 718 c-3 -7 -7 -48 -10 -90 -3 -43 -9 -96 -12 -118 -5 -32 -3
-41 11 -46 28 -11 45 6 88 87 42 79 73 119 93 119 16 0 21 -15 29 -86 11 -88
20 -104 53 -104 16 0 37 9 46 19 18 20 8 35 -17 25 -21 -8 -27 7 -38 84 -12
83 -30 112 -69 112 -37 0 -67 -31 -110 -116 -19 -35 -35 -62 -37 -61 -1 2 2
30 7 63 16 95 13 124 -10 124 -11 0 -22 -6 -24 -12z"/>
<path d="M6366 718 c-12 -41 -26 -242 -17 -251 21 -21 46 2 88 78 24 44 55 91
69 105 24 24 26 24 39 7 7 -10 16 -46 20 -80 4 -34 11 -70 16 -79 11 -21 59
-24 77 -6 19 19 15 40 -7 33 -26 -8 -36 14 -45 88 -8 74 -29 107 -67 107 -35
0 -67 -33 -110 -113 -17 -32 -33 -57 -35 -54 -2 2 0 28 6 57 16 86 14 120 -10
120 -11 0 -22 -6 -24 -12z"/>
</g>
</svg>
