<?xml version="1.0" standalone="no"?>
<!DOCTYPE svg PUBLIC "-//W3C//DTD SVG 20010904//EN"
 "http://www.w3.org/TR/2001/REC-SVG-20010904/DTD/svg10.dtd">
<svg version="1.0" xmlns="http://www.w3.org/2000/svg"
 width="400.000000pt" height="99.000000pt" viewBox="0 0 400.000000 99.000000"
 preserveAspectRatio="xMidYMid meet">
<metadata>
Created by potrace 1.16, written by Peter Selinger 2001-2019
</metadata>
<g transform="translate(0.000000,99.000000) scale(0.100000,-0.100000)"
fill="#000000" stroke="none">
<path d="M1760 935 l0 -35 705 0 705 0 -2 -202 -3 -203 -650 -5 -650 -5 -3
-32 -3 -33 656 0 c703 0 698 0 725 49 6 12 10 105 10 230 l0 211 30 0 c27 0
30 3 30 30 l0 30 -775 0 -775 0 0 -35z"/>
<path d="M3410 695 l0 -275 193 0 c257 0 319 18 364 104 19 36 12 99 -14 128
-10 12 -38 30 -61 40 l-44 20 36 24 c44 30 56 52 56 100 0 30 -7 44 -39 75
-53 50 -102 59 -316 59 l-175 0 0 -275z m392 195 c38 -18 56 -65 37 -99 -24
-43 -53 -51 -196 -51 l-133 0 0 86 0 86 133 -4 c78 -3 143 -10 159 -18z m11
-229 c63 -24 85 -86 47 -134 -29 -37 -76 -47 -222 -47 l-128 0 0 95 0 95 139
0 c77 0 151 -4 164 -9z"/>
<path d="M12 668 l3 -243 45 0 45 0 5 195 5 195 120 -184 c66 -101 126 -190
133 -198 14 -13 68 -18 95 -7 8 3 71 89 138 191 l124 186 5 -164 c5 -173 13
-202 55 -213 11 -3 167 -6 348 -6 l327 0 0 40 0 40 -315 0 -315 0 0 205 0 206
-67 -3 -68 -3 -127 -189 c-70 -104 -131 -193 -136 -198 -5 -5 -65 77 -142 192
l-133 200 -74 0 -73 0 2 -242z"/>
<path d="M2873 846 c-91 -41 -62 -131 52 -164 49 -15 61 -22 63 -41 7 -47 -73
-59 -106 -16 -12 15 -30 25 -46 25 -29 0 -31 -7 -14 -45 17 -37 57 -55 123
-55 72 0 105 28 105 90 0 53 -24 75 -101 97 -66 18 -83 38 -54 59 28 20 53 17
78 -10 27 -29 78 -26 70 4 -14 54 -107 84 -170 56z"/>
<path d="M930 700 l0 -150 115 0 115 0 0 35 0 35 -80 0 -80 0 0 30 0 30 65 0
65 0 0 30 0 30 -65 0 -65 0 0 30 0 30 80 0 c79 0 80 0 80 25 l0 25 -115 0
-115 0 0 -150z"/>
<path d="M1190 825 c0 -22 4 -25 40 -25 l40 0 0 -125 0 -125 30 0 29 0 3 123
3 122 38 3 c32 3 37 7 37 28 0 24 0 24 -110 24 l-110 0 0 -25z"/>
<path d="M1497 826 c-32 -30 -39 -66 -35 -181 3 -90 3 -90 31 -93 l27 -3 0 65
0 66 70 0 70 0 0 -65 c0 -63 1 -65 25 -65 l25 0 0 121 c0 120 0 121 -29 150
-26 26 -36 29 -94 29 -54 0 -68 -4 -90 -24z"/>
<path d="M1790 700 l0 -150 95 0 95 0 0 35 0 35 -65 0 -65 0 0 115 0 115 -30
0 -30 0 0 -150z"/>
<path d="M2040 700 l0 -150 30 0 30 0 0 150 0 150 -30 0 -30 0 0 -150z"/>
<path d="M2199 837 c-29 -22 -39 -55 -39 -131 0 -134 25 -156 180 -156 l100 0
0 35 0 35 -110 0 -110 0 0 85 0 85 110 0 110 0 0 30 0 30 -112 0 c-73 -1 -119
-5 -129 -13z"/>
<path d="M2539 821 c-29 -29 -29 -30 -29 -150 l0 -121 25 0 c24 0 25 2 25 65
l0 65 70 0 70 0 0 -65 c0 -63 1 -65 25 -65 l25 0 0 124 c0 120 -1 124 -26 150
-23 23 -35 26 -91 26 -58 0 -68 -3 -94 -29z"/>
<path d="M10 380 c0 -7 668 -10 1985 -10 1317 0 1985 3 1985 10 0 7 -668 10
-1985 10 -1317 0 -1985 -3 -1985 -10z"/>
<path d="M100 199 c0 -138 1 -150 18 -147 15 3 17 16 16 113 -2 122 -2 123 46
-43 17 -57 25 -73 38 -70 15 3 17 22 20 151 2 144 2 147 -19 147 -20 0 -21 -4
-17 -104 1 -57 0 -99 -4 -94 -3 6 -19 53 -34 105 -22 73 -31 93 -46 93 -17 0
-18 -11 -18 -151z"/>
<path d="M290 200 c0 -136 2 -150 18 -150 35 0 92 21 101 38 16 31 23 100 15
158 -9 74 -36 104 -94 104 l-40 0 0 -150z"/>
<path d="M470 220 c0 -117 2 -132 20 -150 25 -25 72 -26 93 -2 24 26 25 282 2
282 -12 0 -15 -19 -15 -107 0 -133 -5 -155 -34 -151 -20 3 -21 9 -24 131 -2
119 -4 127 -22 127 -19 0 -20 -7 -20 -130z"/>
<path d="M656 334 c-9 -9 -16 -32 -16 -54 0 -31 8 -48 40 -85 22 -25 40 -54
40 -64 0 -25 -26 -44 -51 -38 -16 4 -20 1 -17 -16 4 -30 47 -34 79 -9 39 32
33 87 -18 150 -27 35 -39 59 -36 72 6 21 36 35 53 25 5 -3 10 3 10 14 0 17 -6
21 -34 21 -19 0 -42 -7 -50 -16z"/>
<path d="M920 199 c0 -138 1 -150 18 -147 13 2 18 17 22 68 l5 65 24 -68 c17
-51 28 -67 42 -67 23 0 24 -5 -6 75 -25 65 -25 68 -8 87 12 13 18 36 18 65 0
54 -20 73 -77 73 l-38 0 0 -151z"/>
<path d="M1197 283 c-54 -244 -54 -242 -22 -230 8 4 15 18 15 32 0 22 4 25 34
25 30 0 35 -3 38 -27 3 -32 38 -46 38 -16 -1 10 -13 76 -29 148 -20 96 -31
131 -43 133 -12 2 -20 -13 -31 -65z"/>
<path d="M1336 334 c-9 -9 -16 -32 -16 -54 0 -31 8 -48 40 -85 22 -25 40 -54
40 -64 0 -25 -26 -44 -51 -38 -16 4 -20 1 -17 -16 4 -30 47 -34 79 -9 37 31
33 88 -12 143 -49 61 -51 66 -39 90 9 15 19 20 36 16 18 -3 24 0 24 14 0 15
-8 19 -34 19 -19 0 -42 -7 -50 -16z"/>
<path d="M1557 288 c-19 -200 -20 -238 -5 -238 21 0 28 30 28 120 1 89 12 77
30 -33 21 -123 39 -117 61 21 13 86 14 87 21 42 3 -25 7 -69 7 -97 1 -46 4
-53 21 -53 19 0 20 5 15 47 -3 27 -10 93 -15 147 -6 55 -12 102 -15 104 -2 3
-10 2 -18 -1 -8 -3 -18 -38 -26 -88 -8 -46 -17 -90 -21 -97 -3 -7 -15 32 -25
87 -15 81 -22 101 -35 101 -14 0 -18 -13 -23 -62z"/>
<path d="M1772 203 l3 -148 50 0 c39 0 50 4 53 17 3 15 -4 18 -32 18 l-36 0 0
50 c0 49 1 50 30 50 20 0 30 5 30 15 0 10 -10 15 -30 15 -29 0 -30 1 -30 50
l0 50 60 0 60 0 0 -135 c0 -128 1 -135 20 -135 19 0 20 7 20 135 0 128 1 135
20 135 11 0 20 7 20 15 0 13 -20 15 -120 15 l-121 0 3 -147z"/>
<path d="M2036 223 c-15 -71 -30 -139 -33 -151 -5 -19 -2 -23 13 -20 10 2 21
14 24 28 4 19 13 26 37 28 27 3 31 0 36 -27 7 -33 37 -44 37 -13 0 9 -12 77
-27 150 -22 104 -31 132 -44 132 -12 0 -22 -28 -43 -127z"/>
<path d="M2424 325 c-34 -52 -40 -155 -13 -227 18 -45 100 -65 107 -25 3 13
-3 17 -27 17 -41 0 -54 27 -54 112 0 79 19 118 59 118 40 0 23 25 -19 28 -29
3 -39 -2 -53 -23z"/>
<path d="M2586 333 c-10 -32 -56 -252 -56 -268 0 -28 30 -16 37 16 5 27 9 30
36 27 24 -2 33 -9 37 -28 6 -24 40 -42 40 -21 0 6 -13 72 -30 148 -16 75 -30
138 -30 140 0 12 -30 -1 -34 -14z"/>
<path d="M2709 334 c-25 -30 -17 -90 18 -126 42 -45 52 -68 42 -97 -8 -19 -15
-22 -39 -19 -23 4 -30 1 -30 -13 0 -33 60 -39 90 -9 34 34 27 89 -20 146 -22
27 -40 56 -40 65 0 23 26 42 50 36 15 -4 20 0 20 14 0 15 -7 19 -39 19 -23 0
-44 -6 -52 -16z"/>
<path d="M3130 199 l0 -152 42 6 c27 4 49 14 60 27 24 29 23 85 -1 109 -16 16
-17 20 -5 25 20 8 19 100 -2 120 -9 9 -32 16 -55 16 l-39 0 0 -151z"/>
<path d="M3610 200 l0 -150 25 0 c14 0 41 6 60 14 38 16 55 58 55 136 0 103
-32 150 -102 150 l-38 0 0 -150z"/>
<path d="M3830 346 c0 -3 -14 -69 -30 -147 -17 -78 -28 -144 -26 -147 11 -10
35 8 38 30 2 18 10 24 34 26 28 3 32 0 37 -27 8 -36 37 -43 37 -8 -1 12 -13
78 -28 147 -21 97 -31 126 -45 128 -9 2 -17 1 -17 -2z"/>
<path d="M10 20 c0 -7 668 -10 1985 -10 1317 0 1985 3 1985 10 0 7 -668 10
-1985 10 -1317 0 -1985 -3 -1985 -10z"/>
</g>
</svg>
