<?xml version="1.0" standalone="no"?>
<!DOCTYPE svg PUBLIC "-//W3C//DTD SVG 20010904//EN"
 "http://www.w3.org/TR/2001/REC-SVG-20010904/DTD/svg10.dtd">
<svg version="1.0" xmlns="http://www.w3.org/2000/svg"
 width="2162.000000pt" height="2035.000000pt" viewBox="0 0 2162.000000 2035.000000"
 preserveAspectRatio="xMidYMid meet">
<metadata>
Created by potrace 1.16, written by Peter Selinger 2001-2019
</metadata>
<g transform="translate(0.000000,2035.000000) scale(0.100000,-0.100000)"
fill="#000000" stroke="none">
<path d="M6060 15621 c0 -3221 3 -4742 11 -4812 37 -372 187 -723 433 -1018
79 -94 267 -278 361 -353 481 -381 1158 -663 1890 -787 211 -36 341 -50 730
-76 691 -47 883 -75 1008 -148 75 -44 152 -138 207 -250 46 -96 100 -264 100
-314 0 -50 16 -18 38 75 59 253 180 441 328 509 119 54 363 87 904 123 548 36
807 70 1135 150 1233 300 2088 973 2300 1812 58 228 55 -109 55 5051 l0 4747
-4750 0 -4750 0 0 -4709z m2196 4088 c43 -12 90 -23 104 -24 29 -2 29 -2 -13
-72 l-31 -53 -27 26 c-55 53 -206 71 -284 35 -170 -79 -145 -302 39 -352 85
-23 255 22 271 71 4 11 9 20 13 20 9 0 62 -84 62 -97 0 -14 -122 -67 -189 -83
-116 -27 -270 8 -344 78 -63 59 -93 177 -68 268 44 163 247 242 467 183z
m5292 -9 c-11 -17 2 -48 106 -252 65 -128 127 -240 138 -248 29 -24 12 -30
-79 -30 -82 0 -84 1 -78 21 5 14 -1 40 -16 70 l-22 49 -132 0 -131 0 -27 -55
c-15 -31 -22 -57 -17 -60 26 -16 4 -25 -60 -25 -38 0 -70 3 -70 7 0 3 6 14 14
22 15 17 236 478 236 492 0 5 -4 9 -10 9 -5 0 -10 5 -10 10 0 6 35 10 85 10
83 0 85 -1 73 -20z m-4467 -70 c116 -36 179 -114 179 -221 0 -145 -136 -249
-309 -237 -178 13 -291 137 -261 283 31 150 212 231 391 175z m1471 -8 c100
-44 148 -113 148 -212 0 -134 -101 -226 -261 -238 -173 -12 -309 92 -309 237
0 115 72 196 205 232 48 13 169 3 217 -19z m-935 5 c-16 -11 -17 -32 -15 -192
l3 -180 154 -3 c133 -2 156 0 172 14 18 17 19 15 19 -51 0 -54 -3 -66 -12 -57
-9 9 -75 12 -235 12 -201 0 -254 6 -208 24 13 4 15 38 15 215 0 189 -2 211
-17 220 -13 8 3 10 61 11 66 0 77 -2 63 -13z m1483 -6 c0 -17 127 -261 136
-261 10 0 136 239 136 258 0 21 4 22 81 22 63 0 78 -3 69 -12 -15 -15 -17
-424 -2 -433 25 -16 5 -25 -55 -25 -36 0 -65 4 -65 9 0 5 5 11 10 13 7 2 10
59 8 158 l-3 155 -90 -162 c-49 -90 -92 -159 -96 -155 -4 4 -45 77 -91 162
l-83 155 -3 -155 c-2 -99 1 -156 8 -158 5 -2 10 -8 10 -13 0 -5 -29 -9 -65 -9
-37 0 -65 4 -65 10 0 6 5 10 10 10 16 0 13 437 -2 443 -7 3 24 6 70 6 74 1 82
-1 82 -18z m1171 8 c45 -15 86 -54 92 -87 7 -37 -17 -90 -47 -104 -32 -14 -33
-22 -1 -36 31 -14 65 -68 65 -102 0 -39 -37 -90 -78 -108 -29 -12 -80 -17
-234 -20 -128 -3 -198 -1 -198 6 0 5 7 12 15 16 13 4 15 38 15 215 0 189 -2
211 -17 220 -26 15 344 14 388 0z m572 4 c-16 -6 -19 -443 -3 -443 6 0 10 -4
10 -10 0 -6 -30 -10 -70 -10 -40 0 -70 4 -70 10 0 6 5 10 10 10 15 0 13 423
-2 438 -9 9 5 12 63 11 40 0 68 -3 62 -6z m2367 -1113 c0 -133 -2 -160 -14
-160 -8 0 -18 5 -21 10 -11 18 -45 10 -125 -30 l-80 -40 0 -230 0 -230 80 -40
c85 -43 117 -49 126 -25 4 8 12 15 20 15 11 0 14 -26 14 -130 0 -86 -4 -130
-11 -130 -6 0 -23 12 -38 28 -31 30 -825 412 -858 412 -11 0 -27 -10 -35 -22
-30 -44 -38 -13 -38 143 0 126 2 149 15 149 8 0 24 -9 35 -20 12 -12 26 -17
37 -13 10 3 199 98 421 211 292 148 409 213 425 233 42 57 47 42 47 -131z
m-7780 -10 c0 -121 -3 -150 -14 -150 -7 0 -16 9 -19 20 -5 19 -14 20 -319 20
-175 0 -328 -4 -347 -10 -88 -25 -126 -110 -126 -285 0 -169 35 -253 118 -284
18 -7 146 -11 347 -11 l320 0 6 25 c3 14 12 25 20 25 11 0 14 -28 14 -145 0
-117 -3 -145 -14 -145 -7 0 -16 9 -19 20 -5 19 -14 20 -279 20 -150 0 -311 5
-358 10 -149 17 -239 83 -275 203 -28 90 -40 280 -28 414 15 152 40 223 103
284 81 80 96 82 485 89 l340 5 10 23 c5 12 15 22 22 22 10 0 13 -36 13 -150z
m3414 -297 c83 -218 166 -502 181 -627 4 -31 8 -56 10 -56 1 0 32 20 68 44 67
45 141 77 236 102 81 21 255 36 332 28 l67 -6 -111 -80 c-151 -108 -232 -174
-313 -255 -62 -63 -142 -169 -133 -176 2 -2 59 -13 126 -25 310 -56 539 -167
750 -367 187 -176 299 -366 364 -619 126 -488 36 -1109 -214 -1481 -125 -186
-302 -350 -507 -467 -59 -34 -235 -108 -330 -141 -70 -23 -187 -46 -317 -62
l-53 -7 0 -179 0 -179 50 0 49 0 34 -107 34 -108 -83 -3 -84 -3 0 -354 c0
-195 2 -355 4 -355 2 0 28 32 58 72 525 709 1106 1164 1681 1318 155 41 303
60 472 59 116 0 272 -13 213 -18 -48 -3 -222 -69 -333 -126 -266 -136 -523
-332 -816 -625 -108 -107 -222 -231 -254 -275 -216 -298 -465 -483 -875 -650
-63 -25 -123 -54 -132 -62 -17 -15 -18 -65 -20 -724 l-3 -708 -182 175 -183
176 -2 536 -3 536 -32 22 c-18 12 -86 43 -151 69 -151 59 -327 152 -444 235
-118 82 -292 256 -388 385 -41 55 -133 160 -205 234 -402 412 -801 688 -1137
785 l-83 24 80 7 c44 4 150 5 235 2 269 -11 498 -71 765 -202 441 -215 861
-592 1284 -1148 41 -53 75 -97 77 -97 2 0 4 160 4 355 l0 355 -47 0 -48 0 -29
98 c-16 53 -31 103 -33 110 -4 9 15 12 76 12 l81 0 0 168 0 169 98 32 c220 72
450 212 611 371 246 243 388 537 446 925 21 133 23 444 6 590 -71 589 -331
942 -756 1030 -94 19 -333 22 -440 5 -228 -36 -397 -125 -511 -268 -104 -131
-184 -351 -220 -605 -21 -153 -30 -591 -15 -727 60 -519 273 -870 641 -1055
83 -42 266 -105 303 -105 45 0 -2 -20 -101 -44 -377 -89 -653 -47 -932 145
-241 165 -418 407 -514 704 -110 338 -109 851 3 1193 94 286 272 532 515 711
80 60 222 138 311 172 81 31 266 82 343 94 49 8 52 18 16 71 -83 122 -224 248
-466 415 l-68 46 69 7 c83 8 254 -8 354 -34 83 -21 197 -75 246 -116 17 -14
33 -25 35 -23 2 2 13 57 25 122 12 64 37 169 56 232 44 144 127 375 135 375 3
0 14 -21 24 -47z m3424 -743 c12 -19 23 -20 441 -20 236 0 436 3 445 6 9 3 16
12 16 20 0 8 7 14 15 14 13 0 15 -23 15 -150 0 -127 -2 -150 -15 -150 -8 0
-15 5 -15 11 0 32 -66 -23 -339 -285 -165 -158 -301 -290 -301 -292 0 -2 142
-4 316 -4 307 0 316 1 321 20 3 11 12 20 19 20 11 0 14 -27 14 -135 0 -109 -3
-135 -14 -135 -8 0 -16 7 -20 15 -5 13 -64 15 -451 15 -387 0 -446 -2 -451
-15 -4 -8 -12 -15 -20 -15 -11 0 -14 29 -14 155 l0 156 34 -6 c32 -7 39 -1
326 277 l294 283 -298 3 c-302 2 -326 0 -326 -34 0 -8 -7 -14 -15 -14 -13 0
-15 22 -15 140 0 106 3 140 13 140 7 0 18 -9 25 -20z m-7778 -4 c0 -8 7 -17
16 -20 9 -3 209 -6 445 -6 418 0 429 1 441 20 7 11 18 20 25 20 10 0 13 -38
13 -160 0 -133 -2 -160 -14 -160 -8 0 -18 5 -21 10 -3 6 -11 10 -16 10 -6 0
-105 -91 -221 -202 -115 -112 -249 -240 -296 -285 l-87 -82 308 -1 c301 0 309
1 314 20 3 11 12 20 19 20 11 0 14 -27 14 -135 0 -109 -3 -135 -14 -135 -8 0
-16 7 -20 15 -5 13 -64 15 -451 15 -387 0 -446 -2 -451 -15 -4 -8 -12 -15 -20
-15 -11 0 -14 28 -14 145 0 122 2 145 15 145 8 0 15 -4 15 -10 0 -36 62 19
630 566 l25 24 -324 0 c-314 0 -323 -1 -328 -20 -3 -11 -12 -20 -19 -20 -11 0
-14 27 -14 135 0 113 2 135 15 135 8 0 15 -6 15 -14z m4443 -632 c123 -85 113
-280 -18 -348 -122 -64 -271 19 -283 158 -5 63 10 115 46 158 62 74 175 88
255 32z m-481 -240 c90 -63 115 -192 56 -282 -38 -57 -121 -97 -186 -88 -199
27 -237 308 -52 391 54 24 131 15 182 -21z m926 20 c134 -56 170 -224 69 -329
-60 -62 -133 -80 -205 -49 -76 32 -131 111 -132 190 0 51 40 133 81 163 57 42
125 51 187 25z m-444 -281 c115 -81 114 -257 -2 -338 -37 -25 -53 -30 -107
-30 -54 0 -69 4 -107 30 -136 95 -107 316 49 365 48 16 124 3 167 -27z m4266
-143 c0 -166 -3 -178 -40 -145 -15 13 -26 10 -108 -30 l-92 -44 0 -228 0 -229
85 -42 c92 -46 113 -50 121 -27 4 8 12 15 20 15 11 0 14 -26 14 -130 0 -71 -4
-130 -8 -130 -5 0 -24 14 -43 31 -40 37 -819 409 -856 409 -16 0 -27 -7 -30
-20 -3 -11 -12 -20 -19 -20 -11 0 -14 30 -14 155 0 133 2 155 15 155 9 0 18
-7 21 -15 4 -8 17 -15 31 -15 14 0 203 90 421 201 293 148 405 210 427 235 52
58 55 51 55 -126z m-8705 58 l10 -23 440 0 440 0 10 23 c5 12 15 22 22 22 10
0 13 -36 13 -150 0 -124 -3 -150 -14 -150 -8 0 -18 9 -21 20 -6 20 -15 20
-452 20 -436 0 -445 0 -450 -20 -3 -11 -12 -20 -19 -20 -11 0 -14 29 -14 150
0 114 3 150 13 150 7 0 17 -10 22 -22z m4038 -227 c98 -63 122 -191 54 -292
-69 -102 -235 -106 -311 -6 -39 50 -53 117 -37 174 25 97 94 152 192 153 44 0
64 -6 102 -29z m772 6 c21 -12 53 -42 70 -65 26 -38 30 -52 30 -112 0 -60 -4
-74 -30 -112 -87 -122 -257 -118 -331 8 -58 99 -23 229 75 281 58 31 132 31
186 0z m-3875 -332 c0 -134 -3 -165 -14 -165 -8 0 -16 7 -20 15 -3 8 -17 15
-31 15 -31 0 -637 -282 -627 -292 15 -15 615 -288 633 -288 12 0 21 9 25 25 3
14 12 25 20 25 11 0 14 -30 14 -160 0 -127 -3 -160 -13 -160 -8 0 -19 11 -25
24 -12 28 -2 23 -501 250 -312 143 -369 165 -398 160 l-33 -6 0 141 c0 144 2
152 38 130 15 -10 90 22 443 184 399 183 425 197 444 231 38 69 45 50 45 -129z
m3465 96 c79 -37 116 -97 116 -190 0 -107 -89 -196 -196 -195 -60 1 -101 21
-142 68 -141 160 31 405 222 317z m497 -253 c138 -78 128 -294 -17 -359 -132
-60 -275 36 -275 184 0 157 156 251 292 175z m-954 3 c124 -64 151 -229 54
-327 -41 -40 -79 -55 -138 -55 -108 0 -185 74 -192 185 -6 91 31 156 113 199
41 22 118 21 163 -2z m460 -256 c151 -64 167 -273 28 -360 -132 -81 -296 14
-296 172 0 145 138 242 268 188z m4141 -110 c39 -20 100 -90 122 -140 32 -71
39 -167 39 -532 0 -288 -2 -353 -13 -353 -8 0 -19 11 -25 25 l-12 25 -440 0
-440 0 -12 -25 c-6 -14 -18 -25 -26 -25 -21 0 -12 675 11 771 38 163 121 249
242 249 86 0 133 -33 180 -128 l27 -53 27 58 c31 64 95 129 138 139 16 3 33 8
38 10 19 7 117 -7 144 -21z m-3741 -174 c127 -65 150 -235 46 -333 -91 -85
-249 -56 -303 54 -23 49 -28 128 -10 175 14 37 66 92 104 109 44 19 120 17
163 -5z m-778 -13 c116 -59 145 -215 57 -314 -41 -48 -80 -66 -142 -66 -109
-1 -196 85 -196 193 0 67 13 105 54 148 62 65 147 79 227 39z m388 -307 c79
-41 116 -106 110 -196 -5 -74 -31 -120 -92 -159 -53 -34 -140 -36 -197 -4
-114 64 -134 235 -37 325 59 55 147 69 216 34z m-4414 -106 c5 -13 63 -15 444
-15 379 0 441 2 452 15 7 8 19 15 26 15 12 0 14 -73 14 -440 0 -427 1 -441 20
-460 11 -11 20 -24 20 -30 0 -6 -47 -10 -120 -10 -66 0 -120 3 -120 8 0 4 9
15 20 25 19 16 20 29 20 342 l0 325 -115 0 -115 0 0 -201 c0 -207 5 -239 40
-239 11 0 20 -7 20 -15 0 -13 -22 -15 -140 -15 -118 0 -140 2 -140 15 0 8 9
15 20 15 35 0 40 32 40 239 l0 201 -130 0 -130 0 0 -320 0 -321 25 -25 c48
-48 38 -54 -100 -54 -103 0 -125 3 -125 15 0 7 8 18 18 24 16 9 17 43 20 465
2 377 5 456 16 456 8 0 16 -7 20 -15z m8696 -670 c0 -134 -3 -165 -14 -165 -8
0 -16 7 -20 15 -8 23 -29 19 -121 -27 l-85 -42 0 -229 0 -228 82 -39 c87 -42
128 -50 128 -25 0 8 7 15 15 15 13 0 15 -21 15 -130 0 -137 -6 -151 -41 -107
-10 14 -107 66 -226 122 -114 54 -300 143 -412 197 -112 54 -212 98 -222 98
-10 0 -24 -9 -31 -20 -7 -11 -18 -20 -25 -20 -10 0 -13 37 -13 155 0 129 2
155 15 155 8 0 19 -9 25 -20 6 -11 18 -20 26 -20 9 0 203 95 431 212 330 168
419 217 432 240 34 60 41 37 41 -137z m-8698 -487 l3 -23 447 -3 448 -2 6 25
c3 14 12 25 20 25 12 0 14 -58 14 -349 0 -442 -11 -511 -94 -599 -40 -43 -73
-60 -142 -73 -143 -27 -257 45 -307 194 l-23 67 -179 -125 c-141 -98 -182
-132 -190 -155 -5 -17 -15 -30 -22 -30 -10 0 -13 38 -13 170 0 138 3 170 14
170 7 0 16 -9 19 -21 3 -12 10 -20 16 -18 6 2 85 56 176 119 l165 115 0 138 0
137 -164 0 c-90 0 -171 -3 -180 -6 -9 -3 -16 -17 -16 -30 0 -15 -6 -24 -15
-24 -13 0 -15 24 -15 160 0 132 2 160 14 160 8 0 16 -10 18 -22z m8506 -577
c129 -67 193 -224 193 -481 1 -158 -12 -236 -56 -341 -18 -42 -24 -70 -20 -90
4 -19 3 -29 -5 -29 -20 0 -220 93 -220 102 0 4 6 8 13 8 7 0 25 12 39 28 148
158 124 622 -32 622 -70 0 -94 -62 -110 -285 -17 -237 -35 -316 -90 -385 -44
-56 -101 -80 -188 -80 -197 0 -311 166 -312 453 0 123 18 222 62 344 20 56 28
94 24 114 -3 18 -1 29 5 29 14 0 217 -109 224 -120 3 -5 -9 -16 -27 -24 -88
-42 -155 -260 -130 -422 20 -129 74 -192 140 -165 53 22 76 91 87 266 15 232
50 358 116 421 65 62 201 79 287 35z m-8343 -685 l110 -52 -30 -15 c-41 -19
-71 -68 -101 -163 -47 -150 -42 -294 14 -406 48 -96 117 -104 160 -18 19 38
26 77 37 224 22 269 37 324 107 400 64 69 153 89 257 58 218 -64 297 -440 166
-789 -15 -39 -25 -84 -23 -104 2 -28 -1 -36 -13 -35 -20 2 -219 113 -219 122
0 4 13 13 29 19 34 12 75 72 103 152 26 71 35 234 18 314 -31 149 -154 172
-194 36 -8 -27 -20 -116 -26 -197 -14 -175 -31 -266 -64 -330 -48 -94 -113
-132 -223 -132 -86 0 -134 22 -191 84 -77 84 -110 187 -118 376 -8 150 11 276
56 381 20 49 28 79 23 99 -3 17 -2 30 3 29 5 0 59 -24 119 -53z m8571 -793
c-53 -143 -114 -283 -123 -283 -7 0 -13 7 -13 15 0 29 -35 36 -132 25 -50 -6
-93 -12 -93 -13 -1 -1 -38 -96 -84 -211 l-82 -209 28 -31 c104 -116 134 -137
146 -103 3 9 7 9 17 0 10 -9 3 -35 -33 -125 -44 -110 -68 -139 -75 -91 -4 26
-31 57 -385 436 -143 152 -266 277 -273 277 -8 0 -23 -6 -34 -12 -41 -26 -36
8 18 145 54 134 74 161 86 113 11 -43 -46 -45 720 29 187 18 253 28 265 40 22
22 55 20 47 -2z m-7665 -294 c62 -134 67 -149 44 -149 -8 0 -15 4 -15 9 0 30
-64 5 -408 -155 -207 -96 -387 -182 -399 -190 -14 -9 -22 -23 -20 -36 1 -11
-3 -23 -9 -25 -10 -3 -134 245 -134 268 0 14 22 11 41 -7 16 -14 48 -1 395
161 209 97 389 183 402 191 13 8 22 23 21 32 -6 66 21 33 82 -99z m337 -421
c281 -213 315 -243 367 -321 120 -181 75 -419 -115 -609 -65 -64 -150 -110
-239 -129 -75 -15 -175 2 -266 46 -83 41 -593 425 -588 442 3 7 15 10 31 7 25
-5 43 17 292 346 237 316 263 353 252 371 -12 18 -9 39 5 39 3 0 121 -87 261
-192z m5713 -189 c-14 -45 -1 -63 249 -328 l254 -271 51 48 c27 26 135 129
238 227 173 164 188 181 183 207 -11 56 17 42 100 -47 80 -86 93 -112 52 -102
-21 6 -30 -2 -451 -401 -186 -176 -251 -232 -260 -223 -8 8 -8 14 1 23 7 7 12
20 12 29 0 14 -569 625 -599 644 -6 3 -20 1 -31 -5 -11 -6 -26 -8 -32 -4 -7 5
30 47 103 115 105 99 141 124 130 88z m-4746 -298 c89 -26 131 -43 133 -54 2
-10 -5 -17 -20 -19 -17 -2 -24 -10 -26 -33 -1 -16 36 -228 83 -470 62 -320 91
-447 105 -467 22 -30 26 -48 10 -48 -6 0 -76 19 -155 41 -139 40 -172 60 -125
72 13 3 20 14 20 29 0 30 -29 180 -36 187 -3 3 -101 33 -219 67 l-214 61 -44
-46 c-24 -25 -56 -61 -71 -80 -24 -30 -25 -35 -11 -51 22 -24 19 -43 -5 -36
-11 3 -28 8 -37 10 -10 3 -57 16 -105 31 -89 26 -112 47 -64 59 30 7 646 701
646 727 0 10 -7 22 -16 27 -18 10 -11 32 9 32 7 0 71 -18 142 -39z m4142 -143
c20 -117 17 -144 -15 -115 -10 9 -27 17 -38 17 -10 0 -155 -23 -321 -52 -281
-49 -303 -54 -302 -73 0 -11 8 -63 18 -115 16 -91 18 -95 42 -92 81 11 366 65
380 73 9 5 22 23 28 41 6 18 15 28 19 22 8 -8 52 -243 52 -273 0 -19 -27 -12
-33 9 -10 39 -43 40 -248 4 -106 -19 -195 -34 -195 -34 -3 0 43 -251 47 -254
7 -5 602 103 631 115 15 6 30 20 33 30 4 10 12 19 19 19 18 0 59 -232 43 -242
-7 -4 -15 -1 -20 7 -4 8 -17 15 -29 15 -11 0 -214 -34 -450 -76 -236 -42 -432
-73 -435 -70 -4 3 0 17 7 30 11 22 3 78 -59 438 -40 227 -75 421 -77 430 -3 9
-14 20 -25 23 -58 19 -2 33 404 104 232 41 432 78 444 84 13 6 25 18 28 29 4
10 12 18 19 18 8 0 20 -39 33 -112z m-3307 -23 c318 -28 348 -33 437 -76 114
-54 197 -163 225 -292 15 -71 4 -248 -19 -318 -45 -133 -130 -227 -242 -269
-106 -41 -161 -43 -474 -15 -377 32 -387 34 -387 51 0 8 6 14 14 14 8 0 18 6
23 13 4 6 24 206 45 442 38 428 38 430 18 447 -34 28 -25 39 28 33 26 -3 175
-17 332 -30z m2011 -153 c178 -59 281 -204 296 -417 15 -214 -70 -390 -226
-469 -102 -52 -137 -56 -518 -56 -198 0 -353 4 -353 9 0 5 11 16 25 25 l25 17
-2 437 -3 437 -22 10 c-13 5 -23 16 -23 23 0 11 67 13 368 10 346 -4 371 -5
433 -26z"/>
<path d="M13416 19491 c-25 -50 -46 -95 -46 -101 0 -6 35 -10 90 -10 50 0 90
4 90 9 0 11 -74 179 -83 187 -3 3 -26 -35 -51 -85z"/>
<path d="M8884 19551 c-181 -82 -111 -301 95 -301 120 0 209 97 181 199 -26
98 -169 151 -276 102z"/>
<path d="M10336 19555 c-109 -39 -147 -154 -79 -236 71 -84 220 -92 301 -16
139 129 -30 321 -222 252z"/>
<path d="M12000 19515 l0 -55 115 0 c102 0 117 2 135 20 11 11 20 27 20 35 0
8 -9 24 -20 35 -18 18 -33 20 -135 20 l-115 0 0 -55z"/>
<path d="M12000 19321 l0 -71 93 0 c146 0 198 25 183 86 -9 36 -38 45 -162 51
l-114 6 0 -72z"/>
<path d="M14657 18156 c-86 -40 -160 -76 -163 -79 -3 -3 71 -44 165 -91 l171
-86 0 165 c0 91 -3 165 -7 164 -5 -1 -79 -34 -166 -73z"/>
<path d="M14647 15826 c-86 -40 -160 -76 -163 -79 -3 -3 71 -44 165 -91 l171
-86 0 165 c0 91 -3 165 -7 164 -5 -1 -79 -34 -166 -73z"/>
<path d="M14838 14975 c-14 -8 -37 -36 -50 -62 -22 -45 -23 -61 -26 -275 l-4
-228 137 0 137 0 -4 233 c-3 190 -6 239 -20 269 -30 67 -109 96 -170 63z"/>
<path d="M14437 14949 c-9 -5 -25 -24 -34 -42 -15 -27 -18 -66 -21 -265 l-4
-233 114 3 113 3 0 220 c0 234 -8 282 -48 310 -24 17 -93 19 -120 4z"/>
<path d="M14690 13564 c-63 -29 -140 -64 -170 -77 l-55 -24 172 -87 c95 -47
175 -86 178 -86 3 0 5 74 5 165 0 91 -3 165 -7 164 -5 0 -60 -25 -123 -55z"/>
<path d="M7000 12963 c0 -190 3 -223 19 -258 25 -55 53 -77 103 -82 52 -5 98
20 125 69 16 28 18 64 21 261 l3 227 -135 0 -136 0 0 -217z"/>
<path d="M14496 11089 c-82 -5 -150 -10 -152 -12 -3 -2 53 -68 122 -146 70
-78 128 -140 129 -139 8 8 115 284 115 295 0 8 -12 12 -32 12 -18 -1 -100 -6
-182 -10z"/>
<path d="M7551 10313 c-105 -140 -194 -259 -196 -266 -6 -15 273 -222 342
-254 29 -13 67 -27 86 -30 108 -17 247 90 329 255 24 49 31 76 31 120 0 106
-45 162 -264 327 l-135 103 -193 -255z"/>
<path d="M8639 9782 c-70 -75 -125 -139 -123 -141 6 -7 308 -91 312 -87 2 2
-8 81 -22 175 -14 93 -26 175 -26 181 0 22 -19 5 -141 -128z"/>
<path d="M9556 9828 c-6 -30 -57 -631 -54 -634 2 -1 86 -9 188 -18 197 -17
267 -13 335 20 87 41 138 161 138 323 1 89 -2 104 -29 157 -35 70 -92 114
-175 132 -47 11 -332 42 -381 42 -10 0 -20 -10 -22 -22z"/>
<path d="M11162 9383 l3 -328 200 0 c161 1 211 4 257 18 116 35 167 115 176
275 9 177 -32 278 -135 328 -58 29 -59 29 -281 32 l-222 3 2 -328z"/>
<path d="M3013 6038 c3 -537 6 -643 20 -701 55 -230 279 -425 552 -482 106
-22 314 -22 420 0 264 55 459 218 536 450 l24 70 3 648 3 647 -135 0 -135 0
-3 -633 -3 -632 -32 -66 c-57 -115 -173 -200 -320 -235 -92 -22 -275 -14 -355
14 -80 29 -142 67 -198 123 -57 57 -87 116 -100 195 -6 33 -10 319 -10 647 l0
587 -136 0 -135 0 4 -632z"/>
<path d="M12570 6336 l0 -334 -53 29 c-144 78 -357 78 -525 -1 -45 -21 -86
-52 -136 -103 -125 -126 -176 -260 -176 -461 0 -198 52 -337 168 -456 112
-113 236 -162 412 -163 114 -1 192 16 268 58 l42 24 0 -30 0 -29 120 0 120 0
0 900 0 900 -120 0 -120 0 0 -334z m-139 -472 c30 -9 73 -27 97 -40 l42 -25
-2 -332 -3 -332 -70 -35 c-66 -33 -74 -35 -175 -35 -94 0 -111 3 -166 28 -136
63 -214 200 -214 377 0 158 66 292 178 357 86 51 214 66 313 37z"/>
<path d="M15070 6340 c0 -181 -3 -330 -8 -330 -4 0 -16 6 -27 14 -83 57 -270
81 -405 52 -223 -47 -388 -218 -436 -452 -25 -121 -16 -283 23 -396 84 -243
278 -379 543 -381 105 -1 181 14 252 49 58 30 58 30 58 -1 l0 -25 120 0 120 0
0 900 0 900 -120 0 -120 0 0 -330z m-139 -476 c30 -9 73 -27 97 -40 l42 -25
-2 -332 -3 -332 -70 -35 c-66 -33 -74 -35 -175 -35 -93 0 -112 3 -161 26 -78
37 -133 90 -170 165 -79 160 -57 385 51 507 86 98 253 141 391 101z"/>
<path d="M16990 6340 l0 -329 -61 29 c-81 38 -182 54 -291 46 -257 -18 -445
-177 -515 -436 -23 -88 -24 -281 0 -369 31 -115 74 -190 156 -272 119 -119
230 -162 416 -162 105 0 192 18 253 54 42 24 42 24 42 -6 l0 -25 125 0 125 0
0 900 0 900 -125 0 -125 0 0 -330z m-72 -501 l67 -34 3 -337 2 -337 -67 -33
c-64 -31 -74 -33 -178 -33 -98 0 -116 3 -166 27 -75 34 -134 95 -172 176 -31
65 -32 71 -32 202 0 127 2 139 28 195 47 101 139 178 244 205 21 5 75 8 121 6
70 -3 94 -9 150 -37z"/>
<path d="M6280 6532 c-139 -70 -82 -273 73 -259 141 12 171 209 41 263 -44 18
-72 18 -114 -4z"/>
<path d="M11263 6535 c-47 -20 -73 -68 -73 -133 0 -48 4 -58 33 -87 90 -90
237 -32 237 94 0 106 -99 169 -197 126z"/>
<path d="M8312 6076 c-218 -42 -386 -202 -437 -417 -20 -86 -19 -270 1 -361
72 -317 341 -490 698 -450 120 13 233 47 332 101 l69 37 3 127 3 127 -103 -54
c-293 -154 -531 -152 -674 7 -44 49 -84 146 -84 203 l0 24 445 0 446 0 -5 48
c-3 26 -8 77 -11 114 -19 226 -163 416 -362 478 -85 26 -228 33 -321 16z m244
-225 c86 -39 157 -129 171 -216 l6 -35 -308 0 -307 0 7 28 c26 103 103 195
188 225 62 22 192 21 243 -2z"/>
<path d="M10404 6076 c-79 -18 -116 -38 -175 -93 -61 -57 -89 -127 -89 -223 0
-161 70 -245 313 -374 177 -94 223 -126 244 -171 15 -32 15 -38 1 -69 -24 -50
-85 -76 -180 -76 -92 0 -169 24 -295 91 l-93 49 0 -134 0 -134 78 -31 c117
-46 203 -64 327 -64 177 -2 306 50 381 152 43 60 59 119 58 209 -2 150 -68
221 -335 362 -165 86 -239 149 -239 200 0 46 14 66 60 84 80 32 207 12 362
-58 l98 -44 0 123 0 123 -62 26 c-35 15 -88 33 -118 42 -80 22 -261 27 -336
10z"/>
<path d="M13395 6080 c-82 -12 -166 -39 -235 -77 -104 -56 -100 -48 -100 -190
l0 -125 48 36 c198 145 473 178 554 66 23 -32 42 -134 30 -157 -6 -9 -82 -41
-188 -78 -277 -95 -386 -162 -449 -277 -27 -48 -30 -62 -30 -143 0 -101 17
-144 77 -202 58 -56 119 -77 239 -81 123 -5 185 9 289 64 35 19 67 34 71 34 4
0 9 -13 12 -30 10 -46 57 -70 138 -70 83 0 147 19 215 64 l54 36 0 81 0 81
-22 -16 c-13 -9 -42 -26 -66 -38 -40 -21 -43 -21 -60 -5 -15 16 -18 53 -23
375 -5 327 -7 362 -26 420 -21 62 -58 120 -98 154 -80 68 -268 102 -430 78z
m295 -797 l0 -168 -43 -27 c-62 -39 -150 -62 -214 -55 -75 8 -114 33 -137 90
-17 41 -18 51 -7 89 16 52 67 103 142 141 50 25 233 95 252 97 4 0 7 -75 7
-167z"/>
<path d="M17945 6081 c-248 -41 -420 -203 -471 -442 -19 -88 -14 -283 10 -369
44 -158 159 -299 299 -366 200 -95 466 -81 705 36 l102 51 0 124 c0 69 -3 125
-6 125 -3 0 -36 -18 -72 -39 -151 -88 -274 -124 -417 -124 -81 0 -111 4 -160
23 -110 43 -188 145 -210 278 l-7 42 448 0 447 0 -7 93 c-8 115 -27 191 -71
285 -61 129 -183 232 -319 268 -66 17 -207 25 -271 15z m220 -235 c84 -39 143
-113 164 -205 l9 -41 -310 0 -309 0 6 23 c28 91 77 165 133 201 58 36 91 44
177 45 64 1 90 -4 130 -23z"/>
<path d="M5370 6064 c-62 -17 -125 -51 -187 -101 l-43 -34 0 65 0 66 -125 0
-125 0 0 -595 0 -595 125 0 125 0 0 429 0 428 49 46 c82 77 120 92 236 92 122
0 165 -18 207 -86 41 -67 48 -140 48 -541 l0 -368 120 0 120 0 0 438 c0 460
-3 489 -48 578 -43 84 -132 152 -237 180 -65 18 -195 17 -265 -2z"/>
<path d="M9690 6058 c-54 -27 -133 -103 -183 -178 l-37 -55 0 118 0 117 -125
0 -125 0 0 -595 0 -595 125 0 124 0 3 363 3 362 31 65 c59 126 130 180 234
180 59 0 122 -24 178 -67 19 -14 37 -21 42 -17 4 5 35 54 68 109 l61 100 -27
22 c-15 13 -56 38 -92 55 -56 28 -76 33 -150 35 -71 3 -93 -1 -130 -19z"/>
<path d="M6220 5465 l0 -595 120 0 120 0 0 595 0 595 -120 0 -120 0 0 -595z"/>
<path d="M6580 6053 c1 -4 128 -278 284 -608 l283 -600 60 -3 59 -3 214 473
c117 260 242 535 276 611 l63 137 -137 0 -137 0 -164 -380 c-90 -209 -167
-380 -171 -380 -3 0 -85 170 -181 378 l-175 377 -137 3 c-75 1 -137 -1 -137
-5z"/>
<path d="M11200 5465 l0 -595 125 0 125 0 0 595 0 595 -125 0 -125 0 0 -595z"/>
<path d="M7130 4000 c-290 -23 -516 -120 -708 -305 -132 -126 -211 -258 -264
-442 -21 -70 -23 -99 -22 -273 0 -183 2 -200 28 -285 56 -185 140 -307 312
-456 148 -129 290 -232 594 -435 502 -334 593 -415 649 -587 45 -136 37 -259
-24 -384 -58 -118 -180 -206 -345 -250 -99 -26 -328 -24 -441 5 -234 58 -433
185 -662 421 -59 61 -109 111 -112 111 -3 0 -5 -164 -5 -364 l0 -365 43 -34
c72 -59 188 -132 282 -180 332 -166 803 -203 1150 -90 266 86 489 272 606 506
130 258 132 654 5 956 -107 255 -357 478 -921 825 -134 82 -319 221 -410 307
-188 179 -249 311 -211 459 21 80 52 134 110 191 129 127 339 187 563 160 225
-27 429 -118 678 -301 50 -36 96 -69 103 -74 9 -6 12 59 12 312 l0 319 -118
61 c-304 157 -582 217 -892 192z"/>
<path d="M97 3933 c-4 -3 -7 -870 -7 -1925 l0 -1918 1185 0 1185 0 0 250 0
250 -910 0 -910 0 -2 1672 -3 1673 -266 3 c-146 1 -268 -1 -272 -5z"/>
<path d="M11272 2069 l3 -1862 40 -14 c101 -35 344 -95 480 -119 272 -47 652
-45 892 6 395 83 692 299 852 618 184 366 186 939 5 1331 -105 228 -307 435
-527 540 -172 82 -333 115 -567 115 -245 0 -409 -39 -583 -138 l-77 -44 0 714
0 714 -260 0 -260 0 2 -1861z m1318 111 c126 -36 205 -84 306 -184 107 -108
162 -203 200 -354 47 -179 43 -434 -8 -602 -60 -195 -188 -350 -358 -433 -175
-86 -361 -114 -580 -87 -80 10 -272 56 -332 79 l-28 11 0 707 0 708 43 27
c104 66 232 119 347 143 96 21 313 13 410 -15z"/>
<path d="M3405 2664 c-246 -38 -477 -132 -652 -263 l-48 -37 -3 -258 -2 -259
22 17 c329 237 584 337 863 339 180 1 285 -27 365 -99 77 -70 110 -167 110
-329 l0 -93 -322 -108 c-178 -59 -367 -124 -421 -145 -523 -207 -757 -516
-682 -903 33 -175 145 -318 307 -396 133 -64 245 -83 448 -77 163 5 238 18
355 60 56 20 209 98 275 140 l54 35 13 -51 c19 -73 59 -126 118 -156 46 -24
59 -26 190 -26 106 0 155 5 200 18 91 28 212 90 290 149 l70 53 3 158 c1 86
-1 157 -6 157 -5 0 -33 -18 -63 -41 -111 -83 -203 -113 -244 -79 -50 41 -50
35 -56 805 -6 773 -6 765 -61 930 -85 258 -292 411 -623 460 -124 18 -378 18
-500 -1z m655 -1687 l0 -363 -65 -43 c-146 -95 -290 -141 -446 -141 -237 0
-372 112 -373 310 -2 221 179 363 697 545 84 30 160 54 170 54 16 1 17 -23 17
-362z"/>
<path d="M9480 2673 c-299 -45 -517 -126 -702 -263 l-68 -50 0 -255 c0 -140 4
-255 9 -255 5 0 14 7 21 15 22 27 205 143 305 193 234 117 463 167 656 143
165 -21 253 -64 308 -149 49 -76 65 -158 62 -319 l-1 -51 -307 -102 c-463
-154 -596 -209 -759 -315 -170 -110 -290 -255 -340 -408 -22 -68 -27 -101 -27
-192 0 -130 17 -207 69 -306 70 -133 227 -245 401 -286 117 -27 428 -25 534 4
122 34 227 79 339 147 l105 64 8 -32 c4 -17 20 -56 36 -86 22 -45 37 -60 82
-85 53 -29 57 -30 194 -30 118 0 152 4 215 23 91 28 203 87 287 150 l63 47 0
158 c0 86 -3 157 -8 157 -4 0 -37 -22 -74 -49 -152 -110 -236 -114 -270 -12
-8 25 -13 247 -18 756 -7 762 -7 757 -56 910 -48 147 -163 294 -284 363 -80
45 -219 88 -341 106 -97 15 -368 20 -439 9z m590 -1697 l0 -365 -82 -51 c-160
-98 -295 -135 -461 -128 -84 4 -113 9 -165 33 -179 80 -233 288 -119 458 88
130 269 231 662 368 77 27 146 49 153 49 9 0 12 -80 12 -364z"/>
<path d="M14780 2669 c-101 -13 -206 -38 -314 -76 -125 -43 -208 -85 -324
-163 l-92 -61 0 -261 0 -260 43 32 c312 235 665 355 946 321 215 -27 318 -110
356 -287 18 -87 20 -218 3 -231 -7 -6 -166 -61 -353 -123 -471 -156 -605 -216
-780 -347 -143 -108 -242 -248 -280 -398 -19 -76 -19 -231 0 -314 46 -194 181
-337 385 -406 107 -36 212 -48 378 -42 114 3 169 10 244 30 105 28 264 100
366 166 41 27 64 37 66 28 2 -6 10 -34 17 -61 18 -69 77 -129 148 -150 69 -20
224 -21 311 -1 120 28 234 83 353 173 l47 36 0 158 c0 87 -2 158 -5 158 -2 0
-39 -25 -82 -55 -91 -66 -166 -92 -208 -73 -61 28 -59 4 -66 783 -6 765 -8
790 -62 950 -97 282 -301 430 -657 474 -97 13 -344 12 -440 0z m620 -1694 l0
-365 -56 -36 c-150 -96 -300 -144 -450 -144 -167 0 -277 52 -338 160 -29 51
-31 62 -31 150 0 80 4 102 23 139 65 121 211 226 449 322 101 41 374 138 391
138 9 1 12 -78 12 -364z"/>
<path d="M19990 2665 c-242 -37 -459 -121 -636 -247 l-74 -53 0 -259 0 -258
23 16 c319 234 584 338 867 339 189 1 306 -36 381 -121 59 -68 81 -136 87
-278 l5 -121 -384 -129 c-515 -171 -681 -254 -853 -421 -133 -130 -193 -259
-203 -438 -18 -336 171 -564 523 -631 133 -25 365 -16 499 20 103 27 278 107
373 170 30 20 55 36 57 36 1 0 5 -18 9 -41 15 -92 72 -158 162 -185 70 -21
223 -18 324 6 101 24 219 81 313 150 l67 50 0 160 c0 88 -2 160 -5 160 -3 0
-33 -21 -67 -46 -147 -108 -224 -118 -265 -36 -17 34 -18 88 -24 757 -5 612
-9 731 -23 795 -96 440 -366 623 -916 619 -85 -1 -193 -7 -240 -14z m650
-1683 l0 -367 -82 -52 c-154 -96 -273 -133 -429 -133 -204 0 -333 81 -369 232
-50 208 91 379 435 525 80 34 413 156 443 162 1 1 2 -164 2 -367z"/>
<path d="M17693 2655 c-182 -33 -354 -120 -524 -266 l-69 -60 0 151 0 150
-255 0 -255 0 0 -1270 0 -1270 255 0 255 0 0 911 0 911 47 54 c63 74 179 166
255 203 107 50 179 65 323 65 187 1 296 -36 388 -130 56 -56 89 -119 119 -229
22 -79 22 -88 26 -932 l3 -853 255 0 255 0 -3 938 -3 937 -27 97 c-77 282
-251 470 -513 557 -49 16 -125 34 -168 40 -103 14 -274 12 -364 -4z"/>
</g>
</svg>
