<?xml version="1.0" standalone="no"?>
<!DOCTYPE svg PUBLIC "-//W3C//DTD SVG 20010904//EN"
 "http://www.w3.org/TR/2001/REC-SVG-20010904/DTD/svg10.dtd">
<svg version="1.0" xmlns="http://www.w3.org/2000/svg"
 width="743.000000pt" height="128.000000pt" viewBox="0 0 743.000000 128.000000"
 preserveAspectRatio="xMidYMid meet">
<metadata>
Created by potrace 1.16, written by Peter Selinger 2001-2019
</metadata>
<g transform="translate(0.000000,128.000000) scale(0.100000,-0.100000)"
fill="#000000" stroke="none">
<path d="M510 1265 c-262 -58 -436 -216 -495 -450 -20 -78 -20 -269 0 -354 51
-214 229 -383 462 -438 117 -27 388 -24 496 5 126 35 203 78 288 162 124 123
173 249 173 450 0 196 -49 325 -170 446 -76 77 -185 139 -299 170 -85 23 -367
29 -455 9z m392 -85 c157 -53 257 -160 310 -330 19 -62 23 -98 23 -205 0 -197
-39 -318 -137 -421 -91 -96 -194 -142 -344 -151 -274 -17 -472 122 -541 379
-23 86 -23 289 1 377 53 197 181 323 371 365 92 21 231 14 317 -14z"/>
<path d="M1690 642 l0 -630 101 0 101 0 -6 107 c-3 58 -9 185 -12 281 l-6 175
87 -4 c107 -4 257 14 333 40 119 41 220 132 247 222 8 28 15 87 15 131 0 140
-63 230 -194 277 -57 21 -81 23 -363 27 l-303 4 0 -630z m550 522 c86 -40 121
-104 121 -219 0 -149 -79 -246 -230 -281 -60 -15 -162 -18 -223 -8 l-38 7 0
264 0 265 163 -4 c138 -3 169 -7 207 -24z"/>
<path d="M3052 1228 c-46 -103 -266 -566 -413 -871 -87 -182 -159 -334 -159
-338 0 -4 33 -7 73 -7 l72 -1 37 102 c20 56 62 164 94 240 l56 137 237 0 236
-1 64 -147 c35 -81 80 -187 99 -237 l36 -90 106 0 106 0 -82 170 c-85 179
-240 518 -396 870 -85 191 -96 210 -120 213 -23 3 -29 -3 -46 -40z m194 -646
c-7 -6 -376 -5 -383 1 -2 3 30 81 72 174 43 92 86 188 97 212 l20 43 99 -212
c55 -117 97 -215 95 -218z"/>
<path d="M3910 639 l0 -627 100 0 100 0 0 627 0 626 -100 0 -100 0 0 -626z"/>
<path d="M4450 643 l0 -628 76 0 75 0 -5 115 c-13 259 -17 576 -11 700 l8 132
259 -258 c142 -143 352 -357 466 -476 206 -217 207 -218 250 -218 l42 0 0 629
0 628 -70 0 -70 0 -2 -472 -3 -471 -465 473 -465 472 -42 1 -43 0 0 -627z"/>
<path d="M6028 640 c-107 -32 -158 -139 -112 -236 21 -43 49 -63 147 -104 42
-17 86 -39 97 -48 50 -42 40 -130 -19 -169 -64 -43 -163 -23 -205 42 -23 35
-31 31 -43 -20 -12 -53 -7 -60 63 -81 196 -59 378 88 310 250 -17 42 -50 65
-151 107 -120 50 -153 93 -120 162 20 42 54 62 107 62 35 0 46 -6 80 -44 21
-24 40 -42 41 -40 1 2 9 21 16 42 15 46 6 62 -48 77 -42 12 -124 12 -163 0z"/>
<path d="M6882 593 c-11 -26 -77 -167 -146 -311 -69 -145 -126 -266 -126 -268
0 -2 18 -4 39 -4 32 0 41 4 46 23 4 12 25 66 47 120 l40 97 113 0 112 0 47
-109 c25 -60 46 -114 46 -120 0 -7 22 -11 59 -11 l60 0 -47 98 c-25 53 -89
194 -143 312 -56 126 -102 216 -111 218 -10 2 -22 -14 -36 -45z m90 -297 c-15
-9 -148 -3 -158 7 -3 3 14 48 38 101 l43 95 46 -97 c38 -81 44 -98 31 -106z"/>
</g>
</svg>
