<?xml version="1.0" standalone="no"?>
<!DOCTYPE svg PUBLIC "-//W3C//DTD SVG 20010904//EN"
 "http://www.w3.org/TR/2001/REC-SVG-20010904/DTD/svg10.dtd">
<svg version="1.0" xmlns="http://www.w3.org/2000/svg"
 width="2560.000000pt" height="956.000000pt" viewBox="0 0 2560.000000 956.000000"
 preserveAspectRatio="xMidYMid meet">
<metadata>
Created by potrace 1.16, written by Peter Selinger 2001-2019
</metadata>
<g transform="translate(0.000000,956.000000) scale(0.100000,-0.100000)"
fill="#000000" stroke="none">
<path d="M983 8994 l-983 -567 0 -579 0 -578 22 14 c13 8 446 258 963 556 517
298 952 549 966 557 25 15 46 3 975 -532 522 -301 968 -559 992 -572 l42 -25
0 579 -1 578 -980 565 c-539 311 -988 566 -997 568 -9 1 -459 -252 -999 -564z"/>
<path d="M7980 6965 c0 -628 -4 -1015 -9 -1015 -6 0 -13 5 -17 11 -13 21 -165
129 -252 177 -222 126 -474 210 -767 258 -153 26 -513 26 -674 1 -472 -74
-843 -267 -1187 -619 -357 -365 -555 -790 -614 -1318 -17 -145 -14 -478 5
-627 50 -392 185 -745 398 -1038 359 -492 858 -789 1457 -866 120 -16 468 -16
580 0 411 57 757 198 1015 414 l60 50 3 -192 2 -191 515 0 515 0 0 2985 0
2985 -515 0 -515 0 0 -1015z m-981 -1510 c187 -36 384 -121 526 -227 186 -139
358 -358 435 -555 136 -346 122 -769 -34 -1089 -68 -139 -145 -241 -274 -366
-253 -246 -545 -361 -912 -360 -224 1 -398 40 -577 131 -518 262 -781 844
-662 1469 68 354 265 643 572 835 144 91 325 155 498 177 101 12 326 4 428
-15z"/>
<path d="M11590 6440 c-492 -27 -924 -184 -1284 -467 -164 -130 -355 -344
-474 -533 -110 -175 -228 -474 -271 -686 -90 -442 -76 -950 35 -1338 88 -304
226 -559 427 -786 452 -510 1123 -761 1928 -719 246 13 429 46 656 121 367
120 713 341 992 632 76 81 82 89 65 100 -35 24 -753 436 -759 436 -3 0 -36
-24 -73 -54 -206 -166 -429 -272 -686 -328 -87 -19 -131 -22 -326 -22 -195 0
-239 3 -326 22 -485 106 -800 387 -920 822 -13 46 -27 113 -30 147 l-7 63
1671 0 1670 0 9 88 c15 160 9 564 -10 697 -59 394 -207 739 -444 1035 -326
408 -730 650 -1233 740 -93 16 -425 44 -465 38 -5 0 -71 -4 -145 -8z m390
-895 c46 -8 114 -25 150 -36 265 -88 534 -315 640 -540 35 -75 70 -206 70
-261 l0 -38 -1140 0 -1140 0 6 28 c50 222 119 349 269 498 182 180 417 299
690 348 108 19 348 20 455 1z"/>
<path d="M16360 6399 c-326 -41 -622 -184 -851 -412 l-89 -87 0 215 0 215
-515 0 -515 0 0 -2160 0 -2160 515 0 515 0 0 1309 c0 1425 -2 1374 57 1556 95
295 312 514 580 587 108 29 287 28 396 -1 241 -64 417 -242 501 -509 57 -181
56 -151 56 -1604 l0 -1338 515 0 515 0 0 1263 c0 1216 3 1364 31 1492 72 333
280 587 556 678 310 102 644 18 821 -206 92 -117 145 -236 185 -417 20 -93 21
-118 24 -1452 l4 -1358 514 0 515 0 0 1435 c0 939 -4 1469 -11 1533 -67 620
-342 1065 -794 1283 -205 99 -374 138 -641 146 -361 12 -685 -52 -954 -187
-182 -91 -292 -171 -457 -334 -56 -55 -104 -98 -106 -95 -2 2 -14 22 -27 44
-49 84 -155 209 -232 275 -187 159 -418 257 -683 289 -102 12 -328 13 -425 0z"/>
<path d="M0 4927 c0 -917 4 -1432 10 -1487 37 -299 126 -553 271 -771 75 -113
276 -317 394 -400 281 -198 590 -311 971 -355 175 -20 587 -15 734 10 423 72
746 215 1027 456 251 215 430 528 502 880 45 216 44 196 48 1663 l4 1407 -526
0 -525 0 0 -1308 c0 -1157 -2 -1319 -16 -1403 -64 -371 -309 -641 -675 -741
-71 -20 -108 -23 -244 -23 -192 0 -274 18 -431 96 -236 116 -398 317 -471 584
l-28 100 -3 1348 -3 1347 -519 0 -520 0 0 -1403z"/>
<path d="M20783 6318 c3 -7 401 -991 886 -2186 485 -1195 881 -2176 881 -2180
0 -12 -213 -500 -255 -582 -117 -233 -249 -368 -414 -422 -58 -19 -95 -22
-313 -26 l-248 -4 0 -460 0 -460 363 5 c398 5 433 9 616 76 393 144 701 503
988 1153 62 138 2136 5021 2160 5086 4 10 -103 12 -528 10 l-533 -3 -636
-1548 c-350 -852 -640 -1555 -645 -1563 -7 -11 -178 406 -635 1550 l-625 1566
-534 0 c-422 0 -532 -3 -528 -12z"/>
</g>
</svg>
